<?xml version="1.0" encoding="utf-8"?>
<!-- Generator: Adobe Illustrator 17.1.0, SVG Export Plug-In . SVG Version: 6.00 Build 0)  -->
<!DOCTYPE svg PUBLIC "-//W3C//DTD SVG 1.1//EN" "http://www.w3.org/Graphics/SVG/1.1/DTD/svg11.dtd">
<svg version="1.1" id="Layer_1" xmlns="http://www.w3.org/2000/svg" xmlns:xlink="http://www.w3.org/1999/xlink" x="0px" y="0px"
	 viewBox="0 0 960 560" enable-background="new 0 0 960 560" xml:space="preserve">
<path fill-rule="evenodd" clip-rule="evenodd" fill="#EAEAEA" d="M480.5,556.6c-153,0-277.1-124.1-277.1-277.1
	c0-153,124.1-277.1,277.1-277.1s277.1,124.1,277.1,277.1C757.6,432.5,633.5,556.6,480.5,556.6z M401.5,273.6c-17.4,0-34.8,0-52.2,0
	c11.9-24.1,23.7-48.2,35.6-72.3c5-9.9,10-19.7,14.9-29.6c0-6.4,0-12.9,0-19.3c-27.7,0-55.4,0-83.1,0c-0.1,7.9-0.2,15.8-0.3,23.6
	c16.4,0.1,32.8,0.2,49.2,0.3c-11,22.2-21.9,44.4-32.9,66.6c-6,11.9-12,23.7-17.9,35.6c0,6.3,0,12.7,0,19c28.9,0.1,57.8,0.2,86.7,0.3
	C401.5,289.8,401.5,281.7,401.5,273.6z M523.8,152.7c-31.1-0.1-62.1-0.2-93.2-0.3c-0.1,8.2-0.2,16.5-0.3,24.7h93.5V152.7z
	 M523.8,213c-31.1-0.1-62.1-0.2-93.2-0.3c-0.1,8.2-0.2,16.5-0.3,24.7h93.5V213z M430.6,273.1c-0.1,8.1-0.2,16.3-0.3,24.4
	c31.1,0.1,62.1,0.2,93.2,0.3c0.1-8.1,0.2-16.3,0.3-24.5C492.8,273.3,461.7,273.2,430.6,273.1z M504.1,332.1c0,3.3,1.6,4.9,4.8,4.9
	c2.8,0,5.2-1.1,7.4-3.2c2.2-2.1,3.2-4.1,3.2-6c0-1.8-0.6-3.2-1.7-4.1c-1.1-0.9-2.9-1.4-5.2-1.4c-2.3,0-4.3,1.1-6,3.2
	C505,327.6,504.1,329.8,504.1,332.1z M646.2,152.5c-7.5,0-15,0-22.5,0c0,22.4,0,44.7,0,67.1c0,12.3-1.2,26.5,1.6,36.7
	c-2.7-1.4-8.9-21.8-10.6-26.1c-10.1-25.9-20.1-51.8-30.2-77.7c-10,0-19.9,0-29.9,0c0,48.5,0,96.9,0,145.4c7.5,0,15,0,22.6,0
	c0.1-10.7,0.2-21.4,0.3-32.1c0-24.7-0.1-51.2-2.2-72.8c2.7,1.3,8.4,20.6,10.1,24.7c10.2,26.6,20.5,53.3,30.7,79.9
	c10.1,0.1,20.1,0.2,30.2,0.3C646.2,249.4,646.2,200.9,646.2,152.5z M647,380.4c-0.9,0.8-3.6,3.3-8,7.5c-4.5,4.2-7.1,6.7-8.1,7.3
	c-0.9,0.6-1.7,0.9-2.2,0.9c-0.6,0-0.9-0.5-0.9-1.5c0-1,1.6-6.2,4.8-15.7c3.2-9.5,4.8-15.5,4.8-18.1c0-5.3-2.2-8-6.7-8
	c-3,0-6.1,0.9-9.4,2.7c-3.3,1.8-6.4,4.1-9.2,6.9c-5.8,5.9-10.2,11.6-13.2,17.3c1.6-5,4-13.3,7.4-24.7h-4.6c-2.7,0-4.9,0.4-6.5,1.1
	c-1.6,0.7-2.9,2.2-3.7,4.4c-2,5-4.2,12.5-6.6,22.5c-2.3,2.4-4.4,4.6-6.4,6.3c-1,1-2.8,2.7-5.3,5c-2.5,2.3-4.3,4.1-5.6,5.2l10.4-44.1
	c-9.5-1.8-16.4-2.7-20.6-2.7c-4.2,0-8.3,0.9-12.3,2.8c-4,1.8-7.6,4.3-10.6,7.4c-3,3.1-5.7,6.6-8,10.5c-2.1,3.5-3.6,7.2-4.8,11v-4.3
	c-3.1,3.5-7.3,7.8-12.6,13c-5.3,5.2-8.4,7.8-9.4,7.8c-1.6,0-2.4-1.5-2.4-4.5c0-4.6,3.6-18.4,10.8-41.4c-2.6,0-4.8,0.1-6.5,0.2
	c-1.3,0.1-2.2,0.4-2.8,0.6c-0.6,0.3-1.3,0.7-2.1,1.2c-0.8,0.5-1.5,1.2-2,2c-0.5,0.9-1.2,2.4-2.1,4.6c-0.8,2.1-2.4,7.9-4.7,17.5v-1.1
	l-20.2,16.6c3.2-4.4,4.8-8.2,4.8-11.6c0-2.2-1.5-4.8-4.4-7.8c-1.3-1.3-2.6-2.7-4-4.2c-3.7-3.7-6.3-7.9-7.8-12.6
	c2.8,0,5.4-0.8,7.8-2.4c2.4-1.6,3.6-3.8,3.6-6.6c0-1.6-1.4-2.4-4.3-2.4c-6.5,0-11.4,1.7-14.7,5.2c-3.3,3.5-4.9,7.9-4.9,13.2
	c0,3.6,0.6,6.9,1.8,9.9c-0.8,1-2.2,2.5-4.4,4.8c-0.1,0.1-0.2,0.2-0.3,0.3v-2.4c-1.3,1.2-3.7,3.5-7.2,7c-3.5,3.5-6.3,6.3-8.6,8.4
	c-2.2,2.1-4.8,4.1-7.8,6c-2.9,1.9-5.4,2.9-7.4,2.9c-7.6,0-11.4-5.2-11.4-15.7c0-3.9,1-7.9,2.9-12c1.6,2.5,3.5,4.3,5.8,5.5
	c2.3,1.2,4.4,1.8,6.5,1.8c5.2,0,9.9-1.9,14.1-5.8c4.2-3.8,6.3-8.3,6.3-13.5c0-8-5.4-12-16.1-12c-6.4,0-12.1,1.9-17.3,5.8
	c-5.2,3.9-9.2,8.8-12,14.9c-1.5,3.2-2.5,6.4-3.2,9.8c-3.9,4-7,7.2-9.2,9.3c-2.8,2.6-4.6,4-5.5,4c-0.9,0-1.5-0.3-1.8-0.9
	c-0.3-0.6-0.5-1.7-0.5-3.4c0-3.5,2.5-14.3,7.5-32.4c5-18.1,8.9-31.4,11.7-39.8c1.4-4.8,2.2-7.9,2.4-9.5h-2.4c-2,0-3.9,0.1-5.6,0.2
	c-1.8,0.1-3.5,0.8-5.1,2c-1.2,0.9-2.5,3.9-3.8,9.1l-9.1,32.4c-3.2-1-6.5-1.4-9.9-1.4c-3.4,0-7.3,1.4-11.8,4.3
	c-4.4,2.8-8.4,6.4-11.8,10.7c-3.5,4.3-6.3,9.2-8.5,14.5c-2.2,5.4-3.3,10.1-3.3,14.2c0,4.1,0.5,7.5,1.6,10.4c0.6,1.5,1.6,2.8,2.9,3.7
	c1.3,0.9,3.2,1.4,5.7,1.4c2.5,0,6.2-1.6,11.1-4.8c4.9-3.2,9.9-7.7,14.8-13.4c-0.8,3.2-1.2,6.2-1.2,9.1c0,6,1.9,9.1,5.6,9.1
	c1.3,0,3-0.6,4.9-1.9c1-0.7,2-1.4,2.9-2c0.9-0.7,2-1.6,3.4-2.8c1.4-1.2,2.5-2.2,3.4-3.1c0.9-0.8,2.2-2,3.7-3.6l3.6-3.5
	c0.7-0.7,1.9-1.9,3.3-3.3c0,0.2,0,0.5,0,0.7c0,3.7,0.5,6.9,1.4,9.5c2.5,6.7,9,10,19.2,10c5.1,0,10.5-2.1,16.2-6.2
	c2.5-1.8,5.1-4,7.9-6.5c0,0.3-0.1,0.7-0.1,1c0,4.5,2.2,7.6,6.7,9.4c2,0.8,3.9,1.4,6,1.8c2,0.4,4,0.5,5.8,0.5c1.8,0,3.7-0.2,5.5-0.8
	c1.8-0.5,3.5-1.1,5.1-1.7c1.5-0.7,3.4-1.6,5.5-3c2.1-1.3,3.8-2.4,5.1-3.4c1.3-0.9,3.1-2.3,5.3-4.1c2.2-1.8,3.8-3.1,4.8-3.9
	c1-0.8,2.5-2.2,4.7-4.1c0.8-0.8,1.5-1.4,2.1-1.9c-1.5,6.6-2.2,11-2.2,13.2c0,2.8,0.5,5.1,1.5,6.9c1,1.8,2.5,2.7,4.5,2.7
	c4-0.2,8.7-2.6,14.2-7.2c2.9-2.4,8.5-7.8,16.8-15.9c-0.7,3.1-1.1,6.1-1.1,8.9c0,3.8,0.8,7.1,2.5,9.9c1.7,2.8,4.2,4.2,7.5,4.2
	c3.4,0,7-0.9,10.8-2.7c3.8-1.8,8.7-5.3,14.5-10.5l-2.2,11.6L533.7,425c-0.3,0.2-1,0.8-2.2,1.7c-1.2,0.9-2,1.5-2.3,1.8
	c-0.3,0.3-0.9,0.8-1.8,1.6c-0.9,0.8-1.5,1.4-1.8,1.8c-0.3,0.4-0.7,1-1.2,1.7c-0.5,0.7-0.8,1.3-1,2c-0.2,0.6-0.2,1.7-0.2,3.1
	s0.7,2.9,2.1,4.4c1.4,1.5,3,2.6,4.9,3.3c1.9,0.7,4.1,1,6.5,1c2.5,0,5.2-0.9,8.3-2.7c3.1-1.8,6-4.3,8.9-7.6
	c6.2-7.3,10.3-16.8,12.5-28.6l16.4-15.9c-1.7,7.8-2.6,13.7-2.6,17.5h13c1.5-6.8,4.8-15.5,9.7-26.1c2.4-5.1,5-9.5,8-13.1
	c3-3.6,5.8-5.4,8.4-5.4c0.7,0,1.4,0.3,1.9,1c0.5,0.7,0.8,1.7,0.8,3.2c0,1.5-0.9,4.3-2.6,8.6c-1.7,4.3-3.4,9.1-5.1,14.4
	c-1.7,5.3-2.6,9.8-2.6,13.7c0,3.8,1.7,5.7,5.1,5.7c1.9,0,5.6-2.2,11.1-6.5c5.6-4.3,12-10.2,19.2-17.5V380.4z M541,401.2
	c-4.4,0-6.6-4.4-6.6-13.2c0-7.2,2.2-14.1,6.5-20.8c2-3,4.4-5.6,7.2-7.6c2.9-2,5.8-3,8.9-3c1.1,0,3.4,0.4,6.7,1.2l-7.9,33.2
	C549.8,397.8,544.9,401.2,541,401.2z M456,405.4c-1.9,1-4.3,1.5-7.4,1.5c-3,0-5.9-0.9-8.5-2.6c-2.6-1.7-4-3.9-4-6.5
	c0-2.6,2.7-6.2,8-11c2.4-2.2,3.8-3.5,4.2-3.9c0.4,0.5,1.3,1.6,2.6,3.2c1.3,1.6,2.3,2.8,3,3.7c0.7,0.9,1.4,2,2.3,3.4
	c0.9,1.4,1.5,2.7,1.9,4c0.4,1.3,0.6,2.7,0.6,4.3C458.8,403,457.8,404.3,456,405.4z M412.7,360.4c1.7-0.9,3.6-1.4,5.7-1.4
	c2,0,3.6,0.5,4.6,1.5c1.1,1,1.6,2.9,1.6,5.8c0,2.9-1,5.6-2.9,8.2c-1.9,2.6-4.2,3.9-6.8,3.9c-4.2,0-8-2.2-11.4-6.7
	c0.9-2.5,2.5-5.2,4.8-7.8C409.4,362.4,410.9,361.3,412.7,360.4z M349.6,394.4c-4.4,3.3-8,4.9-10.9,4.9c-3.7,0-5.6-2.9-5.6-8.7
	c0-4.6,1.1-9.5,3.2-14.6c2.1-5.1,5-9.5,8.7-13c3.7-3.6,7.5-5.4,11.4-5.4c1.2,0,2.6,0.3,4,0.8c1.4,0.6,2.2,1.2,2.4,1.8l-6,26.4
	C356.3,388.5,353.9,391.1,349.6,394.4z M538.1,443.6c-1.8,0-3.1-0.3-3.8-1c-0.8-0.7-1.2-1.9-1.2-3.7c0-1.8,0.4-3.5,1.2-5.2
	c0.3-0.6,0.7-1.2,1.4-1.9c0.6-0.7,1.1-1.2,1.5-1.5c0.4-0.3,1-0.8,1.8-1.4c0.8-0.6,1.4-1.1,1.6-1.3l11.2-9.5
	c-0.9,7.7-2.4,13.9-4.7,18.5C544.7,441.3,541.7,443.6,538.1,443.6z"/>
</svg>
